<?xml version="1.0" encoding="UTF-8" standalone="no"?>
<!-- Created with Inkscape (http://www.inkscape.org/) -->

<svg
   xmlns:dc="http://purl.org/dc/elements/1.1/"
   xmlns:cc="http://creativecommons.org/ns#"
   xmlns:rdf="http://www.w3.org/1999/02/22-rdf-syntax-ns#"
   xmlns:svg="http://www.w3.org/2000/svg"
   xmlns="http://www.w3.org/2000/svg"
   version="1.1"
   width="225"
   height="225"
   id="svg2">
  <defs
     id="defs4" />
  <metadata
     id="metadata7">
    <rdf:RDF>
      <cc:Work
         rdf:about="">
        <dc:format>image/svg+xml</dc:format>
        <dc:type
           rdf:resource="http://purl.org/dc/dcmitype/StillImage" />
        <dc:title></dc:title>
      </cc:Work>
    </rdf:RDF>
  </metadata>
  <g
     transform="translate(-76.714851,-331.46259)"
     id="layer1">
    <rect
       width="225"
       height="225"
       x="76.714851"
       y="331.46259"
       id="rect2997"
       style="fill:none" />
    <g
       transform="matrix(0.99857286,0.05340646,-0.05340646,0.99857286,29.693045,-9.6474789)"
       id="g2990">
      <path
         d="m 97.157026,497.1122 92.057834,-53.1496 92.05782,53.1496 -92.05782,53.14961 -92.057834,-53.14961 z"
         id="path3773"
         style="fill:#000000;fill-opacity:0.95515693;stroke:#000000;stroke-width:1px;stroke-linecap:butt;stroke-linejoin:miter;stroke-opacity:1" />
      <path
         d="m 97.157026,390.81299 92.057834,-53.1496 92.05782,53.1496 -92.05782,53.14961 z"
         id="path2987"
         style="fill:none;stroke:#000000;stroke-width:1px;stroke-linecap:butt;stroke-linejoin:miter;stroke-opacity:1" />
      <path
         d="m 189.21486,337.66337 92.05782,53.1496 0,106.29922 -92.05782,-53.14961 z"
         id="path2993"
         style="fill:#07ecff;fill-opacity:0.83856506;stroke:#000000;stroke-width:1px;stroke-linecap:butt;stroke-linejoin:miter;stroke-opacity:1" />
      <path
         d="m 189.21486,550.26181 0,-106.29921 92.05782,-53.14961 0,106.29921 z"
         id="path2995"
         style="fill:#fff907;fill-opacity:0.87892378;stroke:#000000;stroke-width:1px;stroke-linecap:butt;stroke-linejoin:miter;stroke-opacity:1" />
      <path
         d="m 189.21486,337.66339 0,106.29921 -92.057834,53.1496 0,-106.29921 z"
         id="path2991"
         style="fill:#ff8707;fill-opacity:0.83856506;stroke:#000000;stroke-width:1px;stroke-linecap:butt;stroke-linejoin:miter;stroke-opacity:1" />
      <path
         d="m 97.157036,390.81299 0,106.29921 c 0,0 92.057824,53.14961 92.057824,53.14961 0,0 0,-106.29921 0,-106.29921 z"
         id="path2989"
         style="fill:#ff07fc;fill-opacity:0.69803922;stroke:#000000;stroke-width:1px;stroke-linecap:butt;stroke-linejoin:miter;stroke-opacity:1" />
    </g>
  </g>
</svg>
